<svg xmlns="http://www.w3.org/2000/svg" width="256" height="256" viewBox="0 0 256 256" role="img" aria-label="Scuderia Ferrari Racing Theme icon">
  <rect width="256" height="256" rx="40" fill="#0A0A0D"/>
  <path d="M32 60h192v136H32z" fill="#DC0000"/>
  <path d="M32 60h192v28H32z" fill="#FFCC33"/>
  <path d="M32 168h192v28H32z" fill="#111115"/>
  <path d="M57 128c23-37 44-50 62-38 9 6 13 17 18 30 6 16 15 30 34 30 13 0 24-5 35-14-6 24-24 42-50 42-28 0-43-18-53-40-9-19-16-24-29-12-6 5-12 13-17 22z" fill="#0A0A0D"/>
  <path d="M86 85l13 23 27 4-20 19 5 27-25-13-24 13 5-27-20-19 27-4z" fill="#FFCC33"/>
  <path d="M47 214h162" stroke="#FF2800" stroke-width="10" stroke-linecap="round"/>
  <path d="M73 36h110" stroke="#FFCC33" stroke-width="10" stroke-linecap="round"/>
</svg>
